# xmcd
#
# Track frame offsets:
#	150
#	21569
#	41362
#	61306
#	75256
#	91338
#	105810
#	119659
#	152489
#	168358
#	185408
#
# Disc length: 2759 seconds
#
# Revision: 1
# Processed by: cddbd v1.5.1PL0 Copyright (c) Steve Scherf et al.
# Submitted via: audiograbber 1.83.01
#
DISCID=7a0ac50b
DTITLE=Susan Tedeschi - Wait for Me
DYEAR=2002
DGENRE=Blues
TTITLE0=Alone
TTITLE1=Gonna Move
TTITLE2=Wrapped in the Arms of Another
TTITLE3='Til I Found You
TTITLE4=Wait for Me
TTITLE5=The Feelings Music Brings
TTITLE6=In the Garden
TTITLE7=Hampmotized
TTITLE8=Don't Think Twice, It's All Right
TTITLE9=I Fell in Love
TTITLE10=Blues on a Holiday
EXTD=
EXTT0=
EXTT1=
EXTT2=
EXTT3=
EXTT4=
EXTT5=
EXTT6=
EXTT7=
EXTT8=
EXTT9=
EXTT10=
PLAYORDER=
